<?xml version="1.0" encoding="UTF-8"?>
<svg id="uuid-a171cb03-cf87-4397-9358-54529e19fb29" data-name="visual" xmlns="http://www.w3.org/2000/svg" viewBox="0 0 960 540" preserveAspectRatio="xMidYMid slice">
  <rect width="1920" height="1080" style="fill: #012;"/>
  <g filter="url(#heavyNoise)">
    <path d="M960,351c-40.7,2-81.4,4-108.5-17.2-27-21.1-40.5-65.5-70.2-87.9-29.7-22.3-75.7-22.8-98.8-44.3s-23.2-64.1-31.6-101.2c-8.4-37.1-25.2-68.7-41.9-100.4h351v351Z" style="fill: #001d3a;"/>
    <path d="M960,280.8c-32.6,1.6-65.1,3.2-86.8-13.7-21.6-17-32.4-52.4-56.1-70.3-23.8-18-60.6-18.3-79.1-35.5-18.4-17.2-18.5-51.3-25.3-81-6.7-29.6-20.1-55-33.5-80.3h280.8v280.8Z" style="fill: #003370;"/>
    <path d="M960,210.6c-24.4,1.2-48.8,2.4-65.1-10.3-16.2-12.7-24.3-39.3-42.1-52.7-17.8-13.5-45.5-13.7-59.3-26.6-13.8-12.9-13.9-38.5-19-60.7-5-22.3-15.1-41.3-25.1-60.3h210.6v210.6Z" style="fill: #0049a8;"/>
    <path d="M960,140.4c-16.3.8-32.6,1.6-43.4-6.9-10.8-8.4-16.2-26.2-28.1-35.1-11.9-9-30.3-9.2-39.5-17.8s-9.3-25.6-12.6-40.4c-3.4-14.9-10.1-27.5-16.8-40.2h140.4v140.4Z" style="fill: #005de2;"/>
    <path d="M960,70.2c-8.1.4-16.3.8-21.7-3.4-5.4-4.3-8.1-13.1-14-17.6-6-4.5-15.2-4.6-19.8-8.9s-4.6-12.8-6.3-20.2c-1.7-7.4-5.1-13.8-8.4-20.1h70.2v70.2Z" style="fill: #06f;"/>
  </g>
  <g filter="url(#heavyNoise)">
    <path d="M0,189c39.1-.5,78.3-1.1,108.5,17.2,30.2,18.2,51.4,55.3,73.1,83.8,21.8,28.5,44,48.4,63.5,71.9,19.6,23.5,36.3,50.8,53.5,81.1,17.2,30.3,34.8,63.6,52.4,97H0V189Z" style="fill: #001d3a;"/>
    <path d="M0,259.2c31.3-.4,62.6-.9,86.8,13.7,24.1,14.7,41.1,44.3,58.5,67.1,17.4,22.8,35.2,38.7,50.8,57.5,15.6,18.9,29.1,40.6,42.8,64.9,13.8,24.2,27.8,50.9,41.9,77.6H0v-280.8Z" style="fill: #003370;"/>
    <path d="M0,329.4c23.5-.3,47-.7,65.1,10.3s30.8,33.2,43.9,50.3c13,17.1,26.4,29,38.1,43.1,11.7,14.2,21.8,30.5,32.1,48.7s20.8,38.2,31.4,58.2H0v-210.6Z" style="fill: #0049a8;"/>
    <path d="M0,399.6c15.7-.2,31.3-.4,43.4,6.9,12.1,7.3,20.6,22.1,29.3,33.5,8.6,11.4,17.5,19.3,25.4,28.8,7.8,9.4,14.5,20.3,21.4,32.4,6.8,12.1,13.9,25.5,20.9,38.8H0v-140.4Z" style="fill: #005de2;"/>
    <path d="M0,469.8c7.8-.1,15.7-.2,21.7,3.4,6,3.7,10.3,11.1,14.6,16.8,4.4,5.7,8.8,9.7,12.7,14.4,3.9,4.7,7.3,10.1,10.7,16.2,3.5,6.1,7,12.7,10.5,19.4H0v-70.2Z" style="fill: #06f;"/>
  </g>
</svg>