<?xml version="1.0" encoding="UTF-8"?>
<svg id="uuid-a8fac11b-9a8a-4d99-bdaa-0a1e9b0dcad2" data-name="uuid-8cdb7551-d63b-48f1-86ff-558575d1282c" xmlns="http://www.w3.org/2000/svg" xmlns:xlink="http://www.w3.org/1999/xlink" viewBox="0 0 256 256">
  <defs>
    <linearGradient id="uuid-afa8a3e4-4c47-491c-858d-4ad8416abc03" x1="17" y1="103" x2="241" y2="103" gradientUnits="userSpaceOnUse">
      <stop offset="0" stop-color="#fcbc19"/>
      <stop offset="1" stop-color="#fcbc19"/>
    </linearGradient>
    <linearGradient id="uuid-6773b82a-6a66-444b-be0f-e6a7ac201cbe" x1="17" y1="828" x2="241" y2="976" gradientTransform="translate(0 -766)" gradientUnits="userSpaceOnUse">
      <stop offset="0" stop-color="#ffe7a2"/>
      <stop offset=".9531" stop-color="#ffcb3d"/>
    </linearGradient>
    <linearGradient id="uuid-ac9c6e12-9cf9-4cb8-8150-95defa61fa87" x1="16.9254" y1="966.6826" x2="240.9429" y2="969.1828" gradientTransform="translate(0 -766)" gradientUnits="userSpaceOnUse">
      <stop offset="0" stop-color="#ffcf4e"/>
      <stop offset="1" stop-color="#ffb504"/>
    </linearGradient>
    <linearGradient id="uuid-98d8a9c9-5341-4e8c-95c4-eed277a80a17" x1="17" y1="842" x2="241" y2="842" gradientTransform="translate(0 -766)" gradientUnits="userSpaceOnUse">
      <stop offset="0" stop-color="#ffecb5"/>
      <stop offset="1" stop-color="#ffde82"/>
    </linearGradient>
  </defs>
  <path d="M104.425,42.3784c-4.369-5.3051-10.8813-8.3784-17.7538-8.3784H29c-6.6274,0-12,5.3726-12,12v114c0,6.627,5.3726,12,12,12h200c6.627,0,12-5.373,12-12v-89.8629c0-6.6274-5.373-12-12-12h-111.596l-12.979-15.7587Z" style="fill: url(#uuid-afa8a3e4-4c47-491c-858d-4ad8416abc03); fill-rule: evenodd;"/>
  <path d="M92.789,74c4.9752,0,9.816-1.6132,13.797-4.5976l9.873-7.4024h112.541c6.627,0,12,5.3726,12,12v124c0,6.627-5.373,12-12,12H29c-6.6274,0-12-5.373-12-12v-112c0-6.6274,5.3726-12,12-12h63.789Z" style="fill: url(#uuid-6773b82a-6a66-444b-be0f-e6a7ac201cbe); fill-rule: evenodd;"/>
  <path d="M17,194v4c0,6.6274,5.3726,12,12,12h200c6.627,0,12-5.3726,12-12v-4c0,6.6274-5.373,12-12,12H29c-6.6274,0-12-5.3726-12-12Z" style="fill: url(#uuid-ac9c6e12-9cf9-4cb8-8150-95defa61fa87); fill-rule: evenodd;"/>
  <path d="M106.5859,69.4024c-3.9807,2.9844-8.8217,4.5976-13.7969,4.5976H29c-6.6274,0-12,5.3726-12,12v4c0-6.6274,5.3726-12,12-12h63.789c4.9752,0,9.8162-1.6132,13.7969-4.5976l9.8733-7.4024h112.5408c6.627,0,12,5.3726,12,12v-4c0-6.6274-5.373-12-12-12h-112.5408l-9.8733,7.4024Z" style="fill: url(#uuid-98d8a9c9-5341-4e8c-95c4-eed277a80a17); fill-rule: evenodd;"/>
</svg>